HIERARCHY
ROOT newVegas:Hips
{
	OFFSET 0.000000 96.479958 0.000000
	CHANNELS 6 Xposition Yposition Zposition Xrotation Yrotation Zrotation
	JOINT newVegas:Pelvis
	{
		OFFSET 0.000000 0.000000 0.000000
		CHANNELS 3 Xrotation Yrotation Zrotation
		JOINT newVegas:LeftUpLeg
		{
			OFFSET 18.735201 -5.666702 -4.541200
			CHANNELS 3 Xrotation Yrotation Zrotation
			JOINT newVegas:LeftLeg
			{
				OFFSET -0.021200 -31.938179 0.493100
				CHANNELS 3 Xrotation Yrotation Zrotation
				JOINT newVegas:LeftFoot
				{
					OFFSET 0.021200 -31.938179 -4.336299
					CHANNELS 3 Xrotation Yrotation Zrotation
					JOINT newVegas:LeftToeBase
					{
						OFFSET 0.943001 -26.722000 15.023500
						CHANNELS 3 Xrotation Yrotation Zrotation
						End Site
						{
							OFFSET 0.000000 30.670183 0.000000
						}
					}
				}
				JOINT newVegas:Left_PantLeg
				{
					OFFSET 0.663870 -9.044666 -1.108900
					CHANNELS 3 Xrotation Yrotation Zrotation
					End Site
					{
						OFFSET 1.415995 20.635357 0.000000
					}
				}
			}
		}
		JOINT newVegas:RightUpLeg
		{
			OFFSET -18.735201 -5.666702 -4.541200
			CHANNELS 3 Xrotation Yrotation Zrotation
			JOINT newVegas:RightLeg
			{
				OFFSET 0.018946 -31.938133 0.493100
				CHANNELS 3 Xrotation Yrotation Zrotation
				JOINT newVegas:RightFoot
				{
					OFFSET -0.018946 -31.938126 -4.336299
					CHANNELS 3 Xrotation Yrotation Zrotation
					JOINT newVegas:RightToeBase
					{
						OFFSET -0.943001 -26.722004 15.023500
						CHANNELS 3 Xrotation Yrotation Zrotation
						End Site
						{
							OFFSET 0.000000 30.670187 0.000000
						}
					}
				}
				JOINT newVegas:Right_PantLeg
				{
					OFFSET -0.661674 -9.044716 -1.108900
					CHANNELS 3 Xrotation Yrotation Zrotation
					End Site
					{
						OFFSET -1.415958 20.635269 0.000000
					}
				}
			}
		}
	}
	JOINT newVegas:Spine
	{
		OFFSET 0.000000 10.199997 -0.299500
		CHANNELS 3 Xrotation Yrotation Zrotation
		JOINT newVegas:Spine1
		{
			OFFSET 0.000000 11.900002 -1.516600
			CHANNELS 3 Xrotation Yrotation Zrotation
			JOINT newVegas:Spine2
			{
				OFFSET 0.000000 13.600006 -2.842500
				CHANNELS 3 Xrotation Yrotation Zrotation
				JOINT newVegas:Neck
				{
					OFFSET 0.000000 9.624100 -2.890100
					CHANNELS 3 Xrotation Yrotation Zrotation
					JOINT newVegas:Head
					{
						OFFSET 0.000000 14.068802 -1.351900
						CHANNELS 3 Xrotation Yrotation Zrotation
						JOINT newVegas:Hair_Back
						{
							OFFSET 0.000000 3.231903 -17.524799
							CHANNELS 3 Xrotation Yrotation Zrotation
							End Site
							{
								OFFSET 0.000000 19.849884 0.000000
							}
						}
						JOINT newVegas:Hair_Front
						{
							OFFSET 0.000000 31.260406 4.573800
							CHANNELS 3 Xrotation Yrotation Zrotation
							JOINT newVegas:Hair_Front1
							{
								OFFSET 0.000000 2.284103 11.993300
								CHANNELS 3 Xrotation Yrotation Zrotation
								JOINT newVegas:Hair_Front2
								{
									OFFSET 0.000000 2.284103 11.993300
									CHANNELS 3 Xrotation Yrotation Zrotation
									End Site
									{
										OFFSET 0.000000 12.208862 0.000000
									}
								}
							}
						}
						JOINT newVegas:Jowel
						{
							OFFSET 0.000000 -7.458206 6.864100
							CHANNELS 3 Xrotation Yrotation Zrotation
							End Site
							{
								OFFSET 0.000000 19.849884 0.000000
							}
						}
					}
				}
				JOINT newVegas:LeftShoulder
				{
					OFFSET 15.263000 10.923401 -0.547700
					CHANNELS 3 Xrotation Yrotation Zrotation
					JOINT newVegas:LeftArm
					{
						OFFSET 25.438599 -2.830597 -13.032500
						CHANNELS 3 Xrotation Yrotation Zrotation
						JOINT newVegas:LeftForeArm
						{
							OFFSET 29.960503 0.000000 0.000000
							CHANNELS 3 Xrotation Yrotation Zrotation
							JOINT newVegas:LeftHand
							{
								OFFSET 27.849251 0.000000 0.000000
								CHANNELS 3 Xrotation Yrotation Zrotation
								JOINT newVegas:LeftHandThumb1
								{
									OFFSET 4.487587 -3.305161 6.305391
									CHANNELS 3 Xrotation Yrotation Zrotation
									JOINT newVegas:LeftHandThumb2
									{
										OFFSET 5.480453 -3.164139 3.164143
										CHANNELS 3 Xrotation Yrotation Zrotation
										JOINT newVegas:LeftHandThumb3
										{
											OFFSET 5.159721 -2.978973 2.978967
											CHANNELS 3 Xrotation Yrotation Zrotation
											End Site
											{
												OFFSET 2.494507 5.926697 1.738678
											}
										}
									}
								}
								JOINT newVegas:LeftHandIndex1
								{
									OFFSET 18.578728 -0.527832 5.208049
									CHANNELS 3 Xrotation Yrotation Zrotation
									JOINT newVegas:LeftHandIndex2
									{
										OFFSET 3.192009 0.000000 0.000000
										CHANNELS 3 Xrotation Yrotation Zrotation
										JOINT newVegas:LeftHandIndex3
										{
											OFFSET 3.835129 0.000000 0.000000
											CHANNELS 3 Xrotation Yrotation Zrotation
											End Site
											{
												OFFSET -0.034599 3.816971 0.371180
											}
										}
									}
								}
								JOINT newVegas:LeftHandMiddle1
								{
									OFFSET 18.476105 0.000000 0.000000
									CHANNELS 3 Xrotation Yrotation Zrotation
									JOINT newVegas:LeftHandMiddle2
									{
										OFFSET 3.324875 0.000000 0.000000
										CHANNELS 3 Xrotation Yrotation Zrotation
										JOINT newVegas:LeftHandMiddle3
										{
											OFFSET 4.596550 0.000000 0.000000
											CHANNELS 3 Xrotation Yrotation Zrotation
											End Site
											{
												OFFSET 0.057701 4.578827 0.399218
											}
										}
									}
								}
								JOINT newVegas:LeftHandRing1
								{
									OFFSET 17.732719 0.121887 -4.201567
									CHANNELS 3 Xrotation Yrotation Zrotation
									JOINT newVegas:LeftHandRing2
									{
										OFFSET 2.733170 0.000000 0.000000
										CHANNELS 3 Xrotation Yrotation Zrotation
										JOINT newVegas:LeftHandRing3
										{
											OFFSET 3.178268 0.000000 0.000000
											CHANNELS 3 Xrotation Yrotation Zrotation
											End Site
											{
												OFFSET 0.119102 3.170624 0.185394
											}
										}
									}
								}
								JOINT newVegas:LeftHandPinky1
								{
									OFFSET 15.989624 -0.606689 -7.535461
									CHANNELS 3 Xrotation Yrotation Zrotation
									JOINT newVegas:LeftHandPinky2
									{
										OFFSET 2.538986 0.000000 0.000000
										CHANNELS 3 Xrotation Yrotation Zrotation
										JOINT newVegas:LeftHandPinky3
										{
											OFFSET 2.593102 0.000000 0.000000
											CHANNELS 3 Xrotation Yrotation Zrotation
											End Site
											{
												OFFSET -0.150902 2.584198 0.152708
											}
										}
									}
								}
							}
							JOINT newVegas:Left_Sleeve
							{
								OFFSET 0.267448 -0.649796 0.577675
								CHANNELS 3 Xrotation Yrotation Zrotation
								End Site
								{
									OFFSET 0.000000 15.991241 0.000000
								}
							}
							JOINT newVegas:Left_CapeC
							{
								OFFSET 15.715958 -8.608795 -6.935905
								CHANNELS 3 Xrotation Yrotation Zrotation
								JOINT newVegas:Left_CapeC1
								{
									OFFSET 0.000000 -8.688499 0.000000
									CHANNELS 3 Xrotation Yrotation Zrotation
									End Site
									{
										OFFSET 0.000000 8.688499 0.000000
									}
								}
							}
						}
						JOINT newVegas:Left_CapeB
						{
							OFFSET 26.118385 -8.608795 -7.079235
							CHANNELS 3 Xrotation Yrotation Zrotation
							JOINT newVegas:Left_CapeB1
							{
								OFFSET 0.000000 -8.688499 0.000000
								CHANNELS 3 Xrotation Yrotation Zrotation
								End Site
								{
									OFFSET 0.000000 8.688499 0.000000
								}
							}
						}
						JOINT newVegas:Left_CapeA
						{
							OFFSET 5.115639 -8.608795 -10.395809
							CHANNELS 3 Xrotation Yrotation Zrotation
							JOINT newVegas:Left_CapeA1
							{
								OFFSET 0.000000 -8.688499 0.000000
								CHANNELS 3 Xrotation Yrotation Zrotation
								End Site
								{
									OFFSET 0.000000 8.688499 0.000000
								}
							}
						}
					}
				}
				JOINT newVegas:RightShoulder
				{
					OFFSET -15.263000 10.923401 -0.547700
					CHANNELS 3 Xrotation Yrotation Zrotation
					JOINT newVegas:RightArm
					{
						OFFSET -25.438599 -2.830597 -13.032500
						CHANNELS 3 Xrotation Yrotation Zrotation
						JOINT newVegas:RightForeArm
						{
							OFFSET -29.960503 0.000000 0.000000
							CHANNELS 3 Xrotation Yrotation Zrotation
							JOINT newVegas:RightHand
							{
								OFFSET -27.849251 0.000000 0.000000
								CHANNELS 3 Xrotation Yrotation Zrotation
								JOINT newVegas:RightHandThumb1
								{
									OFFSET -4.487587 -3.305161 6.305391
									CHANNELS 3 Xrotation Yrotation Zrotation
									JOINT newVegas:RightHandThumb2
									{
										OFFSET -5.480453 -3.164139 3.164143
										CHANNELS 3 Xrotation Yrotation Zrotation
										JOINT newVegas:RightHandThumb3
										{
											OFFSET -5.159721 -2.978973 2.978967
											CHANNELS 3 Xrotation Yrotation Zrotation
											End Site
											{
												OFFSET -2.494507 5.926697 1.738678
											}
										}
									}
								}
								JOINT newVegas:RightHandIndex1
								{
									OFFSET -18.578728 -0.527832 5.208049
									CHANNELS 3 Xrotation Yrotation Zrotation
									JOINT newVegas:RightHandIndex2
									{
										OFFSET -3.192009 0.000000 0.000000
										CHANNELS 3 Xrotation Yrotation Zrotation
										JOINT newVegas:RightHandIndex3
										{
											OFFSET -3.835129 0.000000 0.000000
											CHANNELS 3 Xrotation Yrotation Zrotation
											End Site
											{
												OFFSET 0.034599 3.816971 0.371180
											}
										}
									}
								}
								JOINT newVegas:RightHandMiddle1
								{
									OFFSET -18.476105 0.000000 0.000000
									CHANNELS 3 Xrotation Yrotation Zrotation
									JOINT newVegas:RightHandMiddle2
									{
										OFFSET -3.324875 0.000000 0.000000
										CHANNELS 3 Xrotation Yrotation Zrotation
										JOINT newVegas:RightHandMiddle3
										{
											OFFSET -4.596550 0.000000 0.000000
											CHANNELS 3 Xrotation Yrotation Zrotation
											End Site
											{
												OFFSET -0.057701 4.578827 0.399218
											}
										}
									}
								}
								JOINT newVegas:RightHandRing1
								{
									OFFSET -17.732719 0.121887 -4.201567
									CHANNELS 3 Xrotation Yrotation Zrotation
									JOINT newVegas:RightHandRing2
									{
										OFFSET -2.733170 0.000000 0.000000
										CHANNELS 3 Xrotation Yrotation Zrotation
										JOINT newVegas:RightHandRing3
										{
											OFFSET -3.178268 0.000000 0.000000
											CHANNELS 3 Xrotation Yrotation Zrotation
											End Site
											{
												OFFSET -0.119102 3.170624 0.185394
											}
										}
									}
								}
								JOINT newVegas:RightHandPinky1
								{
									OFFSET -15.989624 -0.606689 -7.535461
									CHANNELS 3 Xrotation Yrotation Zrotation
									JOINT newVegas:RightHandPinky2
									{
										OFFSET -2.538986 0.000000 0.000000
										CHANNELS 3 Xrotation Yrotation Zrotation
										JOINT newVegas:RightHandPinky3
										{
											OFFSET -2.593102 0.000000 0.000000
											CHANNELS 3 Xrotation Yrotation Zrotation
											End Site
											{
												OFFSET 0.150902 2.584198 0.152708
											}
										}
									}
								}
							}
							JOINT newVegas:Right_CapeC
							{
								OFFSET -15.715958 -8.608795 -6.935905
								CHANNELS 3 Xrotation Yrotation Zrotation
								JOINT newVegas:Right_CapeC1
								{
									OFFSET 0.000000 -8.688499 0.000000
									CHANNELS 3 Xrotation Yrotation Zrotation
									End Site
									{
										OFFSET 0.000000 8.688499 0.000000
									}
								}
							}
							JOINT newVegas:Right_Sleeve
							{
								OFFSET -0.267448 -0.649994 0.577675
								CHANNELS 3 Xrotation Yrotation Zrotation
								End Site
								{
									OFFSET 0.000000 15.991302 0.000000
								}
							}
						}
						JOINT newVegas:Right_CapeA
						{
							OFFSET -5.115540 -8.608795 -10.395824
							CHANNELS 3 Xrotation Yrotation Zrotation
							JOINT newVegas:Right_CapeA1
							{
								OFFSET 0.000000 -8.688499 0.000000
								CHANNELS 3 Xrotation Yrotation Zrotation
								End Site
								{
									OFFSET 0.000000 8.688499 0.000000
								}
							}
						}
						JOINT newVegas:Right_CapeB
						{
							OFFSET -26.118187 -8.608795 -7.079266
							CHANNELS 3 Xrotation Yrotation Zrotation
							JOINT newVegas:Right_CapeB1
							{
								OFFSET 0.000000 -8.688499 0.000000
								CHANNELS 3 Xrotation Yrotation Zrotation
								End Site
								{
									OFFSET 0.000000 8.688499 0.000000
								}
							}
						}
					}
				}
				JOINT newVegas:Left_Collar
				{
					OFFSET 18.625099 8.655502 8.828100
					CHANNELS 3 Xrotation Yrotation Zrotation
					JOINT newVegas:Left_Collar1
					{
						OFFSET 14.783401 10.540405 -1.259500
						CHANNELS 3 Xrotation Yrotation Zrotation
						End Site
						{
							OFFSET 0.000000 18.199875 0.000000
						}
					}
				}
				JOINT newVegas:Collar_Back
				{
					OFFSET 0.000000 15.630707 -20.132601
					CHANNELS 3 Xrotation Yrotation Zrotation
					End Site
					{
						OFFSET 0.000000 22.523010 0.000000
					}
				}
				JOINT newVegas:Left_Peck
				{
					OFFSET 17.239599 -5.132599 25.482599
					CHANNELS 3 Xrotation Yrotation Zrotation
					End Site
					{
						OFFSET 0.000000 22.523010 0.000000
					}
				}
				JOINT newVegas:Right_Peck
				{
					OFFSET -17.239599 -5.132202 25.482599
					CHANNELS 3 Xrotation Yrotation Zrotation
					End Site
					{
						OFFSET 0.000000 22.523010 0.000000
					}
				}
				JOINT newVegas:Right_Collar
				{
					OFFSET -18.625099 8.655792 8.828100
					CHANNELS 3 Xrotation Yrotation Zrotation
					JOINT newVegas:Right_Collar1
					{
						OFFSET -14.783401 10.539993 -1.259500
						CHANNELS 3 Xrotation Yrotation Zrotation
						End Site
						{
							OFFSET 0.000000 18.199631 0.000000
						}
					}
				}
			}
		}
		JOINT newVegas:Belly
		{
			OFFSET 0.000000 -6.540398 9.014299
			CHANNELS 3 Xrotation Yrotation Zrotation
			End Site
			{
				OFFSET 0.000000 11.566666 0.000000
			}
		}
	}
	JOINT newVegas:ElvisFacialAnim_Joint
	{
		OFFSET 1.000000 -95.330101 -8.825800
		CHANNELS 3 Xrotation Yrotation Zrotation
		End Site
		{
			OFFSET 0.000000 35.315800 0.000000
		}
	}
}
MOTION
Frames: 4
Frame Time: 0.016667
0.324144 44.699585 0.161850 0.609056 -23.910848 9.564918 0.000000 0.000001 0.000001 -87.562335 -21.273340 50.454307 74.991550 4.075794 -6.067871 36.972470 -3.088828 -13.560971 -0.000000 -0.000001 -0.000000 0.000004 -0.000001 0.000003 -22.595167 2.425611 -20.758661 103.518299 12.609158 -0.364534 29.332719 5.104737 28.747566 0.000002 -0.000001 -0.000002 -0.000000 -0.000001 -0.000000 2.848115 -1.655074 -6.209306 2.227983 -1.286567 -3.027762 2.233816 -1.285667 -3.025124 -1.563945 1.339769 1.150766 -1.563939 1.339768 1.150767 0.000000 0.000000 -0.000000 -1.563871 1.339751 1.150765 -1.564086 1.339768 1.150768 -0.000000 -0.000000 -0.000000 0.000000 0.000000 -0.000000 0.452721 1.693816 1.739611 -1.798692 -11.700847 -58.798667 -0.000077 -83.306718 -0.000044 -56.402920 17.147777 27.573289 -1.540049 3.690175 6.142337 3.939055 7.948709 0.746821 0.000001 0.000002 0.000001 1.016534 3.605839 -31.478703 1.016549 3.605833 -31.478709 -0.000001 0.000001 0.000001 1.299296 4.030436 -35.722873 1.301535 4.033581 -35.754995 -0.000004 0.000001 0.000000 1.751609 4.592869 -41.733692 1.751618 4.592875 -41.733685 0.000000 0.000001 -0.000001 4.911447 7.752504 -44.887873 2.046408 0.814376 -45.446972 0.000001 -0.000002 -0.000001 0.000000 -0.000003 -0.000002 0.000000 -0.000003 -0.000002 -0.000000 -0.000003 -0.000002 0.000000 0.000000 0.000001 0.000001 0.000001 0.000001 0.000000 0.000000 0.000001 -0.000001 0.000001 0.000001 5.136812 17.382616 7.477151 14.034098 22.826745 31.042281 -0.000008 121.743956 -0.000002 2.429563 -25.805971 9.048800 -1.849233 -3.581787 -6.586139 4.637190 -8.634128 -0.225402 0.000002 0.000001 -0.000006 0.013956 -0.441464 3.625100 0.176780 -1.560939 12.920990 0.000000 0.000003 0.000002 0.522940 -2.650082 22.321576 0.387281 -2.292330 19.175935 -0.000001 -0.000001 -0.000001 0.723863 -3.093970 26.329768 0.387255 -2.292317 19.175944 -0.000000 0.000001 -0.000000 1.074290 -3.717950 32.222893 0.387255 -2.292300 19.175944 -0.000000 -0.000000 0.000000 0.000002 -0.000001 0.000001 -0.000000 -0.000001 0.000000 0.000002 -0.000001 0.000001 -0.000002 -0.000001 0.000001 -0.000002 0.000000 0.000001 -0.000002 -0.000001 0.000001 -0.000002 0.000000 0.000003 0.000001 -0.000001 0.000000 0.000001 -0.000001 0.000000 0.000001 -0.000001 0.000000 0.000001 -0.000001 0.000000 0.000001 -0.000001 0.000000 0.000001 -0.000001 0.000000 0.000001 -0.000001 0.000000 -0.000000 -0.000002 -0.000000 0.000000 0.000001 0.000001 
0.318246 44.725349 0.184744 0.640945 -23.872746 9.570103 -0.000000 -0.000000 -0.000000 -87.569985 -21.294539 50.410867 75.002307 4.100789 -6.113442 36.949916 -3.074091 -13.508200 0.000000 -0.000001 -0.000000 -0.000001 -0.000001 0.000001 -22.703824 2.423359 -20.750887 103.630068 12.500562 -0.344925 29.267272 5.065099 28.626110 0.000002 -0.000002 -0.000003 0.000000 -0.000000 0.000003 2.845233 -1.667829 -6.213563 2.224217 -1.288402 -3.033396 2.230124 -1.286487 -3.030590 -1.548063 1.339594 1.155662 -1.548068 1.339595 1.155664 0.000000 0.000002 -0.000000 -1.547990 1.339601 1.155659 -1.548066 1.339578 1.155666 -0.000000 -0.000001 -0.000000 0.000000 0.000002 0.000000 0.482385 1.632737 1.765587 -1.851249 -11.677335 -58.833194 -0.000171 -83.371147 -0.000148 -56.190696 17.156015 27.669284 -1.540049 3.690178 6.142343 3.939054 7.948707 0.746821 0.000001 -0.000004 -0.000003 1.016534 3.605843 -31.478709 1.016549 3.605833 -31.478709 -0.000001 -0.000001 -0.000001 1.299295 4.030442 -35.722873 1.301537 4.033583 -35.755002 0.000002 0.000001 0.000000 1.751608 4.592871 -41.733692 1.751618 4.592882 -41.733692 0.000001 -0.000001 0.000002 4.911449 7.752510 -44.887870 2.046411 0.814375 -45.446972 0.000004 0.000000 -0.000000 -0.000001 -0.000001 -0.000000 -0.000001 -0.000001 -0.000000 -0.000001 -0.000001 0.000000 -0.000003 0.000001 -0.000000 -0.000003 0.000001 0.000000 -0.000003 0.000001 -0.000000 -0.000004 0.000002 -0.000001 5.151218 17.427057 7.474816 14.053427 22.660447 31.058117 0.000053 121.812339 -0.000057 2.471100 -25.904536 9.104232 -1.849238 -3.581789 -6.586138 4.637191 -8.634121 -0.225414 0.000001 -0.000002 -0.000003 0.013968 -0.441484 3.625075 0.176784 -1.560925 12.920994 -0.000002 -0.000000 0.000004 0.522941 -2.650092 22.321543 0.387277 -2.292309 19.175930 0.000000 0.000001 0.000000 0.723863 -3.093981 26.329730 0.387276 -2.292307 19.175942 0.000000 -0.000001 -0.000000 1.074283 -3.717939 32.222852 0.387266 -2.292302 19.175944 0.000000 0.000002 -0.000000 -0.000001 -0.000002 -0.000002 -0.000001 0.000000 0.000001 -0.000001 -0.000002 -0.000001 0.000001 0.000001 -0.000000 0.000001 0.000002 0.000001 0.000001 0.000001 -0.000000 0.000001 0.000002 0.000003 0.000000 -0.000000 -0.000000 0.000000 -0.000000 -0.000000 0.000000 -0.000000 -0.000000 0.000000 -0.000000 -0.000000 0.000000 -0.000000 -0.000000 0.000000 -0.000000 -0.000000 0.000000 -0.000000 -0.000000 0.000000 -0.000001 -0.000000 -0.000000 -0.000000 -0.000000 
0.312176 44.748932 0.202227 0.668221 -23.838431 9.574365 -0.000001 -0.000001 0.000000 -87.568305 -21.317377 50.368325 75.005688 4.130652 -6.157827 36.934716 -3.061947 -13.461055 0.000000 -0.000000 -0.000000 -0.000003 -0.000001 0.000003 -22.793118 2.416034 -20.743626 103.724926 12.396956 -0.329753 29.203505 5.032001 28.532127 0.000002 -0.000002 -0.000002 -0.000000 0.000000 -0.000003 2.846867 -1.679625 -6.217858 2.223864 -1.290194 -3.038301 2.230373 -1.288404 -3.035256 -1.533446 1.341770 1.158237 -1.533440 1.341776 1.158238 -0.000000 0.000000 -0.000000 -1.533450 1.341793 1.158236 -1.533516 1.341773 1.158239 -0.000000 0.000002 -0.000000 -0.000000 0.000000 -0.000000 0.506470 1.585641 1.768911 -1.905201 -11.648053 -58.840591 -0.000156 -83.445944 -0.000153 -56.101582 17.119287 27.700869 -1.540049 3.690180 6.142341 3.939055 7.948702 0.746825 0.000001 -0.000002 -0.000003 1.016534 3.605846 -31.478709 1.016549 3.605831 -31.478709 0.000001 -0.000001 -0.000000 1.299295 4.030440 -35.722873 1.301536 4.033581 -35.754999 0.000002 0.000000 0.000002 1.751610 4.592874 -41.733699 1.751617 4.592882 -41.733696 -0.000003 0.000001 0.000000 4.911451 7.752512 -44.887870 2.046409 0.814377 -45.446972 -0.000004 0.000000 0.000000 -0.000002 0.000000 -0.000002 -0.000002 0.000000 -0.000002 -0.000002 -0.000001 -0.000002 -0.000000 -0.000001 0.000000 0.000000 -0.000001 0.000001 -0.000000 -0.000001 0.000000 -0.000001 -0.000000 0.000000 5.163598 17.463964 7.466052 14.080607 22.520691 31.066825 -0.000003 121.886666 -0.000004 2.595693 -26.024056 9.128054 -1.849242 -3.581787 -6.586140 4.637188 -8.634124 -0.225405 -0.000000 -0.000004 -0.000001 0.013955 -0.441472 3.625088 0.176779 -1.560956 12.920983 -0.000002 0.000001 -0.000001 0.522914 -2.650080 22.321541 0.387286 -2.292322 19.175920 0.000001 -0.000004 -0.000000 0.723855 -3.093980 26.329729 0.387272 -2.292301 19.175937 -0.000000 0.000001 0.000000 1.074276 -3.717920 32.222862 0.387273 -2.292296 19.175941 0.000001 0.000003 -0.000000 0.000002 0.000001 0.000002 0.000003 0.000002 0.000003 0.000002 0.000001 0.000003 -0.000003 0.000000 0.000001 -0.000002 0.000001 0.000001 -0.000003 0.000000 0.000001 -0.000002 0.000001 0.000002 0.000000 0.000001 0.000000 0.000000 0.000001 0.000000 0.000000 0.000001 0.000000 0.000000 0.000001 0.000000 0.000000 0.000001 0.000000 0.000000 0.000001 0.000000 0.000000 0.000001 0.000000 -0.000000 -0.000001 0.000000 -0.000001 -0.000001 0.000000 
0.305120 44.770149 0.213709 0.691919 -23.813248 9.579701 0.000000 0.000000 -0.000000 -87.548368 -21.341597 50.335810 75.002492 4.163023 -6.201806 36.922394 -3.055511 -13.433796 0.000000 -0.000001 0.000000 0.000002 -0.000001 -0.000000 -22.865047 2.409335 -20.738483 103.801848 12.302683 -0.319052 29.143697 5.005720 28.465490 0.000001 -0.000002 -0.000002 0.000000 -0.000000 -0.000000 2.852509 -1.691320 -6.223036 2.225576 -1.291794 -3.043522 2.232484 -1.289740 -3.040206 -1.520207 1.345446 1.157835 -1.520206 1.345441 1.157837 0.000000 -0.000003 0.000000 -1.520211 1.345441 1.157837 -1.520204 1.345449 1.157834 0.000000 -0.000001 0.000000 0.000000 -0.000003 0.000000 0.522517 1.557777 1.745667 -1.958945 -11.606918 -58.821548 0.000240 -83.536806 0.000254 -56.009774 17.105218 27.723912 -1.540047 3.690177 6.142341 3.939054 7.948702 0.746822 0.000001 0.000002 -0.000004 1.016534 3.605844 -31.478709 1.016548 3.605834 -31.478706 -0.000000 0.000001 -0.000000 1.299296 4.030442 -35.722873 1.301534 4.033584 -35.754999 0.000004 -0.000000 -0.000000 1.751608 4.592871 -41.733692 1.751619 4.592875 -41.733692 -0.000003 -0.000002 -0.000001 4.911449 7.752513 -44.887870 2.046404 0.814375 -45.446962 0.000000 -0.000003 -0.000001 -0.000002 0.000001 -0.000000 -0.000002 0.000001 -0.000000 -0.000003 0.000000 0.000000 0.000000 0.000000 -0.000001 0.000001 0.000000 -0.000000 0.000000 0.000000 -0.000001 -0.000000 0.000001 -0.000001 5.172908 17.491985 7.451948 14.105763 22.416235 31.064093 0.000025 121.951361 -0.000029 2.794222 -26.106463 9.140205 -1.849239 -3.581790 -6.586143 4.637187 -8.634127 -0.225407 0.000003 -0.000003 0.000001 0.013962 -0.441474 3.625084 0.176770 -1.560931 12.920998 -0.000002 0.000002 0.000001 0.522956 -2.650085 22.321541 0.387265 -2.292305 19.175932 0.000000 0.000004 -0.000000 0.723830 -3.093962 26.329765 0.387297 -2.292323 19.175918 -0.000000 -0.000001 -0.000001 1.074291 -3.717934 32.222852 0.387264 -2.292307 19.175949 -0.000001 0.000002 0.000000 0.000003 -0.000000 0.000001 0.000000 0.000000 0.000003 0.000003 -0.000000 0.000001 -0.000002 0.000000 -0.000000 -0.000002 0.000001 0.000002 -0.000002 0.000000 -0.000000 -0.000001 0.000001 0.000004 -0.000000 -0.000001 0.000000 -0.000000 -0.000001 0.000000 -0.000000 -0.000001 0.000000 -0.000000 -0.000001 0.000000 -0.000000 -0.000001 0.000000 -0.000000 -0.000001 0.000000 -0.000000 -0.000001 0.000000 0.000000 -0.000002 0.000000 0.000000 0.000000 -0.000000 
